<mxfile host="app.diagrams.net" agent="Mozilla/5.0 (X11; Ubuntu; Linux x86_64; rv:137.0) Gecko/20100101 Firefox/137.0" version="26.2.13" pages="7">
  <diagram name="Ejercicio1" id="GeQNvVVfM7mdpUdX3lWv">
    <mxGraphModel dx="1362" dy="795" grid="1" gridSize="10" guides="1" tooltips="1" connect="1" arrows="1" fold="1" page="1" pageScale="1" pageWidth="827" pageHeight="1169" math="0" shadow="0">
      <root>
        <mxCell id="0" />
        <mxCell id="1" parent="0" />
        <mxCell id="VjXpQPiXYlF9yh5aBYjC-1" value="INICIO" style="ellipse;whiteSpace=wrap;html=1;" vertex="1" parent="1">
          <mxGeometry x="350" y="40" width="120" height="80" as="geometry" />
        </mxCell>
        <mxCell id="VjXpQPiXYlF9yh5aBYjC-11" style="edgeStyle=orthogonalEdgeStyle;rounded=0;orthogonalLoop=1;jettySize=auto;html=1;exitX=0.5;exitY=0;exitDx=0;exitDy=0;entryX=0.5;entryY=1;entryDx=0;entryDy=0;" edge="1" parent="1" source="VjXpQPiXYlF9yh5aBYjC-2" target="VjXpQPiXYlF9yh5aBYjC-1">
          <mxGeometry relative="1" as="geometry" />
        </mxCell>
        <mxCell id="VjXpQPiXYlF9yh5aBYjC-2" value="&lt;div&gt;Ingresa tu &lt;br&gt;&lt;/div&gt;&lt;div&gt;edad&lt;/div&gt;" style="shape=parallelogram;perimeter=parallelogramPerimeter;whiteSpace=wrap;html=1;fixedSize=1;" vertex="1" parent="1">
          <mxGeometry x="350" y="190" width="120" height="60" as="geometry" />
        </mxCell>
        <mxCell id="VjXpQPiXYlF9yh5aBYjC-10" style="edgeStyle=orthogonalEdgeStyle;rounded=0;orthogonalLoop=1;jettySize=auto;html=1;entryX=0.5;entryY=1;entryDx=0;entryDy=0;" edge="1" parent="1" source="VjXpQPiXYlF9yh5aBYjC-3" target="VjXpQPiXYlF9yh5aBYjC-2">
          <mxGeometry relative="1" as="geometry" />
        </mxCell>
        <mxCell id="VjXpQPiXYlF9yh5aBYjC-3" value="&lt;div&gt;Eres mayor&lt;/div&gt;&lt;div&gt;de edad&lt;/div&gt;" style="rhombus;whiteSpace=wrap;html=1;" vertex="1" parent="1">
          <mxGeometry x="340" y="290" width="140" height="90" as="geometry" />
        </mxCell>
        <mxCell id="VjXpQPiXYlF9yh5aBYjC-4" value="Tu edad es 17" style="shape=parallelogram;perimeter=parallelogramPerimeter;whiteSpace=wrap;html=1;fixedSize=1;" vertex="1" parent="1">
          <mxGeometry x="160" y="410" width="120" height="60" as="geometry" />
        </mxCell>
        <mxCell id="VjXpQPiXYlF9yh5aBYjC-5" value="Tu edad es 18" style="shape=parallelogram;perimeter=parallelogramPerimeter;whiteSpace=wrap;html=1;fixedSize=1;" vertex="1" parent="1">
          <mxGeometry x="560" y="400" width="120" height="60" as="geometry" />
        </mxCell>
        <mxCell id="VjXpQPiXYlF9yh5aBYjC-6" value="FIN" style="ellipse;whiteSpace=wrap;html=1;" vertex="1" parent="1">
          <mxGeometry x="350" y="540" width="120" height="80" as="geometry" />
        </mxCell>
        <mxCell id="VjXpQPiXYlF9yh5aBYjC-8" style="edgeStyle=orthogonalEdgeStyle;rounded=0;orthogonalLoop=1;jettySize=auto;html=1;exitX=0;exitY=0.5;exitDx=0;exitDy=0;" edge="1" parent="1" source="VjXpQPiXYlF9yh5aBYjC-3">
          <mxGeometry relative="1" as="geometry">
            <mxPoint x="232" y="410" as="targetPoint" />
          </mxGeometry>
        </mxCell>
        <mxCell id="VjXpQPiXYlF9yh5aBYjC-9" style="edgeStyle=orthogonalEdgeStyle;rounded=0;orthogonalLoop=1;jettySize=auto;html=1;exitX=1;exitY=0.5;exitDx=0;exitDy=0;entryX=0.592;entryY=-0.05;entryDx=0;entryDy=0;entryPerimeter=0;" edge="1" parent="1" source="VjXpQPiXYlF9yh5aBYjC-3" target="VjXpQPiXYlF9yh5aBYjC-5">
          <mxGeometry relative="1" as="geometry" />
        </mxCell>
        <mxCell id="VjXpQPiXYlF9yh5aBYjC-12" style="edgeStyle=orthogonalEdgeStyle;rounded=0;orthogonalLoop=1;jettySize=auto;html=1;exitX=0.5;exitY=1;exitDx=0;exitDy=0;entryX=0.725;entryY=0.063;entryDx=0;entryDy=0;entryPerimeter=0;" edge="1" parent="1" source="VjXpQPiXYlF9yh5aBYjC-5" target="VjXpQPiXYlF9yh5aBYjC-6">
          <mxGeometry relative="1" as="geometry" />
        </mxCell>
        <mxCell id="VjXpQPiXYlF9yh5aBYjC-13" style="edgeStyle=orthogonalEdgeStyle;rounded=0;orthogonalLoop=1;jettySize=auto;html=1;exitX=0.5;exitY=1;exitDx=0;exitDy=0;entryX=0.375;entryY=0;entryDx=0;entryDy=0;entryPerimeter=0;" edge="1" parent="1" source="VjXpQPiXYlF9yh5aBYjC-4" target="VjXpQPiXYlF9yh5aBYjC-6">
          <mxGeometry relative="1" as="geometry" />
        </mxCell>
        <mxCell id="VjXpQPiXYlF9yh5aBYjC-14" value="NO" style="text;html=1;align=center;verticalAlign=middle;resizable=0;points=[];autosize=1;strokeColor=none;fillColor=none;" vertex="1" parent="1">
          <mxGeometry x="270" y="330" width="40" height="30" as="geometry" />
        </mxCell>
        <mxCell id="VjXpQPiXYlF9yh5aBYjC-15" value="SI" style="text;html=1;align=center;verticalAlign=middle;resizable=0;points=[];autosize=1;strokeColor=none;fillColor=none;" vertex="1" parent="1">
          <mxGeometry x="550" y="330" width="30" height="30" as="geometry" />
        </mxCell>
      </root>
    </mxGraphModel>
  </diagram>
  <diagram id="dEiQXRlB__emPnqOKGuQ" name="Ejercicio2">
    <mxGraphModel dx="1362" dy="795" grid="1" gridSize="10" guides="1" tooltips="1" connect="1" arrows="1" fold="1" page="1" pageScale="1" pageWidth="827" pageHeight="1169" math="0" shadow="0">
      <root>
        <mxCell id="0" />
        <mxCell id="1" parent="0" />
        <mxCell id="vCBzjJMKTiPqLiMV9b0y-1" value="INICIO" style="ellipse;whiteSpace=wrap;html=1;" vertex="1" parent="1">
          <mxGeometry x="340" y="110" width="120" height="80" as="geometry" />
        </mxCell>
        <mxCell id="vCBzjJMKTiPqLiMV9b0y-3" style="edgeStyle=orthogonalEdgeStyle;rounded=0;orthogonalLoop=1;jettySize=auto;html=1;entryX=0.5;entryY=1;entryDx=0;entryDy=0;" edge="1" parent="1" source="vCBzjJMKTiPqLiMV9b0y-2" target="vCBzjJMKTiPqLiMV9b0y-1">
          <mxGeometry relative="1" as="geometry" />
        </mxCell>
        <mxCell id="vCBzjJMKTiPqLiMV9b0y-2" value="&lt;div&gt;Ingresa un&lt;/div&gt;&lt;div&gt;numero&lt;span style=&quot;white-space: pre;&quot;&gt;&#x9;&lt;/span&gt;&lt;/div&gt;" style="shape=parallelogram;perimeter=parallelogramPerimeter;whiteSpace=wrap;html=1;fixedSize=1;" vertex="1" parent="1">
          <mxGeometry x="340" y="240" width="120" height="60" as="geometry" />
        </mxCell>
        <mxCell id="vCBzjJMKTiPqLiMV9b0y-7" style="edgeStyle=orthogonalEdgeStyle;rounded=0;orthogonalLoop=1;jettySize=auto;html=1;entryX=0.5;entryY=1;entryDx=0;entryDy=0;" edge="1" parent="1" source="vCBzjJMKTiPqLiMV9b0y-4" target="vCBzjJMKTiPqLiMV9b0y-2">
          <mxGeometry relative="1" as="geometry" />
        </mxCell>
        <mxCell id="vCBzjJMKTiPqLiMV9b0y-8" style="edgeStyle=orthogonalEdgeStyle;rounded=0;orthogonalLoop=1;jettySize=auto;html=1;entryX=0.5;entryY=0;entryDx=0;entryDy=0;" edge="1" parent="1" source="vCBzjJMKTiPqLiMV9b0y-4" target="vCBzjJMKTiPqLiMV9b0y-5">
          <mxGeometry relative="1" as="geometry" />
        </mxCell>
        <mxCell id="vCBzjJMKTiPqLiMV9b0y-4" value="Tu numero es positivo?" style="rhombus;whiteSpace=wrap;html=1;" vertex="1" parent="1">
          <mxGeometry x="320" y="340" width="160" height="80" as="geometry" />
        </mxCell>
        <mxCell id="vCBzjJMKTiPqLiMV9b0y-14" style="edgeStyle=orthogonalEdgeStyle;rounded=0;orthogonalLoop=1;jettySize=auto;html=1;entryX=0;entryY=0;entryDx=0;entryDy=0;" edge="1" parent="1" source="vCBzjJMKTiPqLiMV9b0y-5" target="vCBzjJMKTiPqLiMV9b0y-12">
          <mxGeometry relative="1" as="geometry" />
        </mxCell>
        <mxCell id="vCBzjJMKTiPqLiMV9b0y-5" value="Tu numero es 4" style="shape=parallelogram;perimeter=parallelogramPerimeter;whiteSpace=wrap;html=1;fixedSize=1;" vertex="1" parent="1">
          <mxGeometry x="160" y="440" width="120" height="60" as="geometry" />
        </mxCell>
        <mxCell id="vCBzjJMKTiPqLiMV9b0y-13" style="edgeStyle=orthogonalEdgeStyle;rounded=0;orthogonalLoop=1;jettySize=auto;html=1;entryX=1;entryY=0.5;entryDx=0;entryDy=0;" edge="1" parent="1" source="vCBzjJMKTiPqLiMV9b0y-6" target="vCBzjJMKTiPqLiMV9b0y-12">
          <mxGeometry relative="1" as="geometry" />
        </mxCell>
        <mxCell id="vCBzjJMKTiPqLiMV9b0y-6" value="Tu numero es -1" style="shape=parallelogram;perimeter=parallelogramPerimeter;whiteSpace=wrap;html=1;fixedSize=1;" vertex="1" parent="1">
          <mxGeometry x="540" y="440" width="120" height="60" as="geometry" />
        </mxCell>
        <mxCell id="vCBzjJMKTiPqLiMV9b0y-9" style="edgeStyle=orthogonalEdgeStyle;rounded=0;orthogonalLoop=1;jettySize=auto;html=1;entryX=0.617;entryY=-0.033;entryDx=0;entryDy=0;entryPerimeter=0;" edge="1" parent="1" source="vCBzjJMKTiPqLiMV9b0y-4" target="vCBzjJMKTiPqLiMV9b0y-6">
          <mxGeometry relative="1" as="geometry" />
        </mxCell>
        <mxCell id="vCBzjJMKTiPqLiMV9b0y-10" value="&lt;div&gt;SI&lt;/div&gt;&lt;div&gt;&lt;br&gt;&lt;/div&gt;" style="text;html=1;align=center;verticalAlign=middle;resizable=0;points=[];autosize=1;strokeColor=none;fillColor=none;" vertex="1" parent="1">
          <mxGeometry x="260" y="380" width="30" height="40" as="geometry" />
        </mxCell>
        <mxCell id="vCBzjJMKTiPqLiMV9b0y-11" value="NO" style="text;html=1;align=center;verticalAlign=middle;resizable=0;points=[];autosize=1;strokeColor=none;fillColor=none;" vertex="1" parent="1">
          <mxGeometry x="521" y="378" width="40" height="30" as="geometry" />
        </mxCell>
        <mxCell id="vCBzjJMKTiPqLiMV9b0y-12" value="&lt;div&gt;FIN&lt;/div&gt;&lt;div&gt;&lt;br&gt;&lt;/div&gt;" style="ellipse;whiteSpace=wrap;html=1;" vertex="1" parent="1">
          <mxGeometry x="354" y="540" width="120" height="80" as="geometry" />
        </mxCell>
      </root>
    </mxGraphModel>
  </diagram>
  <diagram id="D-PKno82XnxFSu3pXf17" name="Ejercicio3">
    <mxGraphModel dx="1362" dy="795" grid="1" gridSize="10" guides="1" tooltips="1" connect="1" arrows="1" fold="1" page="1" pageScale="1" pageWidth="827" pageHeight="1169" math="0" shadow="0">
      <root>
        <mxCell id="0" />
        <mxCell id="1" parent="0" />
        <mxCell id="z113Uqp4e39YgViBIX9i-1" value="&lt;div&gt;INICIO&lt;/div&gt;&lt;div&gt;&lt;br&gt;&lt;/div&gt;" style="ellipse;whiteSpace=wrap;html=1;" vertex="1" parent="1">
          <mxGeometry x="354" y="50" width="120" height="80" as="geometry" />
        </mxCell>
        <mxCell id="z113Uqp4e39YgViBIX9i-7" style="edgeStyle=orthogonalEdgeStyle;rounded=0;orthogonalLoop=1;jettySize=auto;html=1;" edge="1" parent="1" source="z113Uqp4e39YgViBIX9i-2" target="z113Uqp4e39YgViBIX9i-1">
          <mxGeometry relative="1" as="geometry" />
        </mxCell>
        <mxCell id="z113Uqp4e39YgViBIX9i-8" style="edgeStyle=orthogonalEdgeStyle;rounded=0;orthogonalLoop=1;jettySize=auto;html=1;" edge="1" parent="1" source="z113Uqp4e39YgViBIX9i-2" target="z113Uqp4e39YgViBIX9i-3">
          <mxGeometry relative="1" as="geometry" />
        </mxCell>
        <mxCell id="z113Uqp4e39YgViBIX9i-2" value="&lt;div&gt;Ingresa un numero&lt;/div&gt;&lt;div&gt;entero&lt;/div&gt;" style="shape=parallelogram;perimeter=parallelogramPerimeter;whiteSpace=wrap;html=1;fixedSize=1;" vertex="1" parent="1">
          <mxGeometry x="350" y="200" width="130" height="60" as="geometry" />
        </mxCell>
        <mxCell id="z113Uqp4e39YgViBIX9i-3" value="&lt;div&gt;Tu numero es&lt;/div&gt;&lt;div&gt;par?&lt;/div&gt;" style="rhombus;whiteSpace=wrap;html=1;" vertex="1" parent="1">
          <mxGeometry x="370" y="320" width="80" height="80" as="geometry" />
        </mxCell>
        <mxCell id="z113Uqp4e39YgViBIX9i-13" style="edgeStyle=orthogonalEdgeStyle;rounded=0;orthogonalLoop=1;jettySize=auto;html=1;" edge="1" parent="1" source="z113Uqp4e39YgViBIX9i-4" target="z113Uqp4e39YgViBIX9i-6">
          <mxGeometry relative="1" as="geometry" />
        </mxCell>
        <mxCell id="z113Uqp4e39YgViBIX9i-4" value="Tu numero es 1" style="shape=parallelogram;perimeter=parallelogramPerimeter;whiteSpace=wrap;html=1;fixedSize=1;" vertex="1" parent="1">
          <mxGeometry x="130" y="420" width="120" height="60" as="geometry" />
        </mxCell>
        <mxCell id="z113Uqp4e39YgViBIX9i-11" style="edgeStyle=orthogonalEdgeStyle;rounded=0;orthogonalLoop=1;jettySize=auto;html=1;entryX=1;entryY=0.5;entryDx=0;entryDy=0;" edge="1" parent="1" source="z113Uqp4e39YgViBIX9i-5" target="z113Uqp4e39YgViBIX9i-6">
          <mxGeometry relative="1" as="geometry" />
        </mxCell>
        <mxCell id="z113Uqp4e39YgViBIX9i-5" value="Tu numero es 8" style="shape=parallelogram;perimeter=parallelogramPerimeter;whiteSpace=wrap;html=1;fixedSize=1;" vertex="1" parent="1">
          <mxGeometry x="570" y="420" width="120" height="60" as="geometry" />
        </mxCell>
        <mxCell id="z113Uqp4e39YgViBIX9i-6" value="FIN" style="ellipse;whiteSpace=wrap;html=1;" vertex="1" parent="1">
          <mxGeometry x="350" y="540" width="120" height="80" as="geometry" />
        </mxCell>
        <mxCell id="z113Uqp4e39YgViBIX9i-9" style="edgeStyle=orthogonalEdgeStyle;rounded=0;orthogonalLoop=1;jettySize=auto;html=1;entryX=0.583;entryY=0.017;entryDx=0;entryDy=0;entryPerimeter=0;" edge="1" parent="1" source="z113Uqp4e39YgViBIX9i-3" target="z113Uqp4e39YgViBIX9i-5">
          <mxGeometry relative="1" as="geometry" />
        </mxCell>
        <mxCell id="z113Uqp4e39YgViBIX9i-10" style="edgeStyle=orthogonalEdgeStyle;rounded=0;orthogonalLoop=1;jettySize=auto;html=1;entryX=0.558;entryY=0;entryDx=0;entryDy=0;entryPerimeter=0;" edge="1" parent="1" source="z113Uqp4e39YgViBIX9i-3" target="z113Uqp4e39YgViBIX9i-4">
          <mxGeometry relative="1" as="geometry" />
        </mxCell>
        <mxCell id="z113Uqp4e39YgViBIX9i-14" value="SI" style="text;html=1;align=center;verticalAlign=middle;resizable=0;points=[];autosize=1;strokeColor=none;fillColor=none;" vertex="1" parent="1">
          <mxGeometry x="530" y="360" width="30" height="30" as="geometry" />
        </mxCell>
        <mxCell id="z113Uqp4e39YgViBIX9i-15" value="NO" style="text;html=1;align=center;verticalAlign=middle;resizable=0;points=[];autosize=1;strokeColor=none;fillColor=none;" vertex="1" parent="1">
          <mxGeometry x="261" y="358" width="40" height="30" as="geometry" />
        </mxCell>
      </root>
    </mxGraphModel>
  </diagram>
  <diagram id="HYIlK-hCtAZ6L96o28ck" name="Página-4">
    <mxGraphModel dx="1362" dy="795" grid="1" gridSize="10" guides="1" tooltips="1" connect="1" arrows="1" fold="1" page="1" pageScale="1" pageWidth="827" pageHeight="1169" math="0" shadow="0">
      <root>
        <mxCell id="0" />
        <mxCell id="1" parent="0" />
        <mxCell id="XOkamS4mmtO4-arw8xeV-1" value="INICIO" style="ellipse;whiteSpace=wrap;html=1;" vertex="1" parent="1">
          <mxGeometry x="340" y="50" width="120" height="80" as="geometry" />
        </mxCell>
        <mxCell id="XOkamS4mmtO4-arw8xeV-14" value="" style="edgeStyle=orthogonalEdgeStyle;rounded=0;orthogonalLoop=1;jettySize=auto;html=1;" edge="1" parent="1" source="XOkamS4mmtO4-arw8xeV-2" target="XOkamS4mmtO4-arw8xeV-3">
          <mxGeometry relative="1" as="geometry" />
        </mxCell>
        <mxCell id="XOkamS4mmtO4-arw8xeV-2" value="&lt;div&gt;Ingresa la &lt;br&gt;&lt;/div&gt;&lt;div&gt;contraseña&lt;/div&gt;" style="shape=parallelogram;perimeter=parallelogramPerimeter;whiteSpace=wrap;html=1;fixedSize=1;" vertex="1" parent="1">
          <mxGeometry x="330" y="190" width="120" height="60" as="geometry" />
        </mxCell>
        <mxCell id="XOkamS4mmtO4-arw8xeV-9" style="edgeStyle=orthogonalEdgeStyle;rounded=0;orthogonalLoop=1;jettySize=auto;html=1;entryX=0.5;entryY=0;entryDx=0;entryDy=0;" edge="1" parent="1" source="XOkamS4mmtO4-arw8xeV-3" target="XOkamS4mmtO4-arw8xeV-4">
          <mxGeometry relative="1" as="geometry" />
        </mxCell>
        <mxCell id="XOkamS4mmtO4-arw8xeV-3" value="&lt;div&gt;Tu contraseña es &lt;br&gt;&lt;/div&gt;&lt;div&gt;correcta&lt;/div&gt;" style="rhombus;whiteSpace=wrap;html=1;" vertex="1" parent="1">
          <mxGeometry x="310" y="300" width="150" height="90" as="geometry" />
        </mxCell>
        <mxCell id="XOkamS4mmtO4-arw8xeV-4" value="&lt;div&gt;acceso permitido&lt;/div&gt;" style="shape=parallelogram;perimeter=parallelogramPerimeter;whiteSpace=wrap;html=1;fixedSize=1;" vertex="1" parent="1">
          <mxGeometry x="160" y="430" width="120" height="60" as="geometry" />
        </mxCell>
        <mxCell id="XOkamS4mmtO4-arw8xeV-11" style="edgeStyle=orthogonalEdgeStyle;rounded=0;orthogonalLoop=1;jettySize=auto;html=1;" edge="1" parent="1" source="XOkamS4mmtO4-arw8xeV-5" target="XOkamS4mmtO4-arw8xeV-6">
          <mxGeometry relative="1" as="geometry" />
        </mxCell>
        <mxCell id="XOkamS4mmtO4-arw8xeV-5" value="no acceso" style="shape=parallelogram;perimeter=parallelogramPerimeter;whiteSpace=wrap;html=1;fixedSize=1;" vertex="1" parent="1">
          <mxGeometry x="480" y="430" width="120" height="60" as="geometry" />
        </mxCell>
        <mxCell id="XOkamS4mmtO4-arw8xeV-6" value="FIN" style="ellipse;whiteSpace=wrap;html=1;" vertex="1" parent="1">
          <mxGeometry x="330" y="580" width="120" height="80" as="geometry" />
        </mxCell>
        <mxCell id="XOkamS4mmtO4-arw8xeV-10" style="edgeStyle=orthogonalEdgeStyle;rounded=0;orthogonalLoop=1;jettySize=auto;html=1;entryX=0.625;entryY=-0.05;entryDx=0;entryDy=0;entryPerimeter=0;" edge="1" parent="1" source="XOkamS4mmtO4-arw8xeV-3" target="XOkamS4mmtO4-arw8xeV-5">
          <mxGeometry relative="1" as="geometry" />
        </mxCell>
        <mxCell id="XOkamS4mmtO4-arw8xeV-12" style="edgeStyle=orthogonalEdgeStyle;rounded=0;orthogonalLoop=1;jettySize=auto;html=1;entryX=0.342;entryY=-0.012;entryDx=0;entryDy=0;entryPerimeter=0;" edge="1" parent="1" source="XOkamS4mmtO4-arw8xeV-4" target="XOkamS4mmtO4-arw8xeV-6">
          <mxGeometry relative="1" as="geometry" />
        </mxCell>
        <mxCell id="XOkamS4mmtO4-arw8xeV-13" style="edgeStyle=orthogonalEdgeStyle;rounded=0;orthogonalLoop=1;jettySize=auto;html=1;entryX=0.45;entryY=1;entryDx=0;entryDy=0;entryPerimeter=0;" edge="1" parent="1" source="XOkamS4mmtO4-arw8xeV-2" target="XOkamS4mmtO4-arw8xeV-1">
          <mxGeometry relative="1" as="geometry" />
        </mxCell>
      </root>
    </mxGraphModel>
  </diagram>
  <diagram id="1ZfMO81E5tp5OKulqIE-" name="Ejercicio5">
    <mxGraphModel dx="1362" dy="795" grid="1" gridSize="10" guides="1" tooltips="1" connect="1" arrows="1" fold="1" page="1" pageScale="1" pageWidth="827" pageHeight="1169" math="0" shadow="0">
      <root>
        <mxCell id="0" />
        <mxCell id="1" parent="0" />
        <mxCell id="hMCYz2h1c0L420ZqOcyo-4" style="edgeStyle=orthogonalEdgeStyle;rounded=0;orthogonalLoop=1;jettySize=auto;html=1;entryX=0.5;entryY=0;entryDx=0;entryDy=0;" edge="1" parent="1" source="hMCYz2h1c0L420ZqOcyo-1" target="hMCYz2h1c0L420ZqOcyo-2">
          <mxGeometry relative="1" as="geometry" />
        </mxCell>
        <mxCell id="hMCYz2h1c0L420ZqOcyo-1" value="INICIO" style="ellipse;whiteSpace=wrap;html=1;" vertex="1" parent="1">
          <mxGeometry x="340" y="40" width="120" height="80" as="geometry" />
        </mxCell>
        <mxCell id="hMCYz2h1c0L420ZqOcyo-5" style="edgeStyle=orthogonalEdgeStyle;rounded=0;orthogonalLoop=1;jettySize=auto;html=1;entryX=0.5;entryY=0;entryDx=0;entryDy=0;" edge="1" parent="1" source="hMCYz2h1c0L420ZqOcyo-2" target="hMCYz2h1c0L420ZqOcyo-3">
          <mxGeometry relative="1" as="geometry" />
        </mxCell>
        <mxCell id="hMCYz2h1c0L420ZqOcyo-2" value="&lt;div&gt;Ingresa el total&lt;/div&gt;&lt;div&gt;de la cuenta&lt;/div&gt;" style="shape=parallelogram;perimeter=parallelogramPerimeter;whiteSpace=wrap;html=1;fixedSize=1;" vertex="1" parent="1">
          <mxGeometry x="340" y="190" width="120" height="60" as="geometry" />
        </mxCell>
        <mxCell id="hMCYz2h1c0L420ZqOcyo-3" value="&lt;div&gt;tu propina sera de &lt;br&gt;&lt;/div&gt;&lt;div&gt;10, 15, 20 %?&lt;/div&gt;" style="rhombus;whiteSpace=wrap;html=1;" vertex="1" parent="1">
          <mxGeometry x="310" y="320" width="180" height="100" as="geometry" />
        </mxCell>
        <mxCell id="9PYyOpK0AE_uWktVDfUT-7" style="edgeStyle=orthogonalEdgeStyle;rounded=0;orthogonalLoop=1;jettySize=auto;html=1;entryX=0;entryY=0.5;entryDx=0;entryDy=0;" edge="1" parent="1" source="9PYyOpK0AE_uWktVDfUT-1" target="hMCYz2h1c0L420ZqOcyo-3">
          <mxGeometry relative="1" as="geometry" />
        </mxCell>
        <mxCell id="9PYyOpK0AE_uWktVDfUT-1" value="Propina del 10%" style="shape=parallelogram;perimeter=parallelogramPerimeter;whiteSpace=wrap;html=1;fixedSize=1;" vertex="1" parent="1">
          <mxGeometry x="70" y="400" width="120" height="60" as="geometry" />
        </mxCell>
        <mxCell id="9PYyOpK0AE_uWktVDfUT-8" style="edgeStyle=orthogonalEdgeStyle;rounded=0;orthogonalLoop=1;jettySize=auto;html=1;entryX=1;entryY=0.5;entryDx=0;entryDy=0;" edge="1" parent="1" source="9PYyOpK0AE_uWktVDfUT-2" target="hMCYz2h1c0L420ZqOcyo-3">
          <mxGeometry relative="1" as="geometry" />
        </mxCell>
        <mxCell id="9PYyOpK0AE_uWktVDfUT-11" style="edgeStyle=orthogonalEdgeStyle;rounded=0;orthogonalLoop=1;jettySize=auto;html=1;entryX=1;entryY=0.5;entryDx=0;entryDy=0;" edge="1" parent="1" source="9PYyOpK0AE_uWktVDfUT-2" target="9PYyOpK0AE_uWktVDfUT-9">
          <mxGeometry relative="1" as="geometry">
            <mxPoint x="720" y="625" as="targetPoint" />
            <Array as="points">
              <mxPoint x="650" y="543" />
              <mxPoint x="721" y="543" />
              <mxPoint x="721" y="690" />
            </Array>
          </mxGeometry>
        </mxCell>
        <mxCell id="9PYyOpK0AE_uWktVDfUT-2" value="Propina del 20%" style="shape=parallelogram;perimeter=parallelogramPerimeter;whiteSpace=wrap;html=1;fixedSize=1;" vertex="1" parent="1">
          <mxGeometry x="590" y="400" width="120" height="60" as="geometry" />
        </mxCell>
        <mxCell id="9PYyOpK0AE_uWktVDfUT-4" style="edgeStyle=orthogonalEdgeStyle;rounded=0;orthogonalLoop=1;jettySize=auto;html=1;entryX=0.5;entryY=1;entryDx=0;entryDy=0;" edge="1" parent="1" source="9PYyOpK0AE_uWktVDfUT-3" target="hMCYz2h1c0L420ZqOcyo-3">
          <mxGeometry relative="1" as="geometry" />
        </mxCell>
        <mxCell id="9PYyOpK0AE_uWktVDfUT-13" style="edgeStyle=orthogonalEdgeStyle;rounded=0;orthogonalLoop=1;jettySize=auto;html=1;entryX=0.5;entryY=0;entryDx=0;entryDy=0;" edge="1" parent="1" source="9PYyOpK0AE_uWktVDfUT-3" target="9PYyOpK0AE_uWktVDfUT-9">
          <mxGeometry relative="1" as="geometry" />
        </mxCell>
        <mxCell id="9PYyOpK0AE_uWktVDfUT-3" value="Propina del 15%" style="shape=parallelogram;perimeter=parallelogramPerimeter;whiteSpace=wrap;html=1;fixedSize=1;" vertex="1" parent="1">
          <mxGeometry x="340" y="480" width="120" height="60" as="geometry" />
        </mxCell>
        <mxCell id="9PYyOpK0AE_uWktVDfUT-9" value="FIN" style="ellipse;whiteSpace=wrap;html=1;" vertex="1" parent="1">
          <mxGeometry x="340" y="650" width="120" height="80" as="geometry" />
        </mxCell>
        <mxCell id="9PYyOpK0AE_uWktVDfUT-12" style="edgeStyle=orthogonalEdgeStyle;rounded=0;orthogonalLoop=1;jettySize=auto;html=1;entryX=-0.008;entryY=0.613;entryDx=0;entryDy=0;entryPerimeter=0;" edge="1" parent="1" source="9PYyOpK0AE_uWktVDfUT-1" target="9PYyOpK0AE_uWktVDfUT-9">
          <mxGeometry relative="1" as="geometry">
            <Array as="points">
              <mxPoint x="120" y="699" />
            </Array>
          </mxGeometry>
        </mxCell>
      </root>
    </mxGraphModel>
  </diagram>
  <diagram id="Wtg84bcLSd9xLVgOdvBX" name="Ejercicio6">
    <mxGraphModel dx="1362" dy="1964" grid="1" gridSize="10" guides="1" tooltips="1" connect="1" arrows="1" fold="1" page="1" pageScale="1" pageWidth="827" pageHeight="1169" math="0" shadow="0">
      <root>
        <mxCell id="0" />
        <mxCell id="1" parent="0" />
        <mxCell id="UBZtmPVZ2s7BMG8OKy4n-1" value="INICIO" style="ellipse;whiteSpace=wrap;html=1;" vertex="1" parent="1">
          <mxGeometry x="350" y="-100" width="120" height="80" as="geometry" />
        </mxCell>
        <mxCell id="UBZtmPVZ2s7BMG8OKy4n-2" value="ingresa un numero" style="shape=parallelogram;perimeter=parallelogramPerimeter;whiteSpace=wrap;html=1;fixedSize=1;" vertex="1" parent="1">
          <mxGeometry x="330" y="150" width="130" height="60" as="geometry" />
        </mxCell>
        <mxCell id="xK9bkQIo71_o8vUVFqtR-14" style="edgeStyle=orthogonalEdgeStyle;rounded=0;orthogonalLoop=1;jettySize=auto;html=1;entryX=0.5;entryY=1;entryDx=0;entryDy=0;" edge="1" parent="1" source="UBZtmPVZ2s7BMG8OKy4n-3" target="xK9bkQIo71_o8vUVFqtR-2">
          <mxGeometry relative="1" as="geometry" />
        </mxCell>
        <mxCell id="UBZtmPVZ2s7BMG8OKy4n-3" value="mayor, menor o igual?" style="rhombus;whiteSpace=wrap;html=1;" vertex="1" parent="1">
          <mxGeometry x="314" y="340" width="160" height="100" as="geometry" />
        </mxCell>
        <mxCell id="xK9bkQIo71_o8vUVFqtR-11" style="edgeStyle=orthogonalEdgeStyle;rounded=0;orthogonalLoop=1;jettySize=auto;html=1;entryX=0;entryY=0.5;entryDx=0;entryDy=0;" edge="1" parent="1" source="UBZtmPVZ2s7BMG8OKy4n-4" target="UBZtmPVZ2s7BMG8OKy4n-6">
          <mxGeometry relative="1" as="geometry">
            <Array as="points">
              <mxPoint x="150" y="700" />
            </Array>
          </mxGeometry>
        </mxCell>
        <mxCell id="UBZtmPVZ2s7BMG8OKy4n-4" value="&lt;div&gt;Tu numero es &lt;br&gt;&lt;/div&gt;&lt;div&gt;mayor&lt;/div&gt;&lt;div&gt;&lt;br&gt;&lt;/div&gt;" style="shape=parallelogram;perimeter=parallelogramPerimeter;whiteSpace=wrap;html=1;fixedSize=1;" vertex="1" parent="1">
          <mxGeometry x="90" y="400" width="120" height="60" as="geometry" />
        </mxCell>
        <mxCell id="xK9bkQIo71_o8vUVFqtR-12" style="edgeStyle=orthogonalEdgeStyle;rounded=0;orthogonalLoop=1;jettySize=auto;html=1;entryX=1;entryY=0.5;entryDx=0;entryDy=0;" edge="1" parent="1" source="UBZtmPVZ2s7BMG8OKy4n-5" target="UBZtmPVZ2s7BMG8OKy4n-6">
          <mxGeometry relative="1" as="geometry">
            <Array as="points">
              <mxPoint x="630" y="700" />
            </Array>
          </mxGeometry>
        </mxCell>
        <mxCell id="UBZtmPVZ2s7BMG8OKy4n-5" value="&lt;div&gt;Tu numero es &lt;br&gt;&lt;/div&gt;&lt;div&gt;menor&lt;/div&gt;" style="shape=parallelogram;perimeter=parallelogramPerimeter;whiteSpace=wrap;html=1;fixedSize=1;" vertex="1" parent="1">
          <mxGeometry x="570" y="400" width="120" height="60" as="geometry" />
        </mxCell>
        <mxCell id="UBZtmPVZ2s7BMG8OKy4n-6" value="FIN" style="ellipse;whiteSpace=wrap;html=1;" vertex="1" parent="1">
          <mxGeometry x="330" y="660" width="120" height="80" as="geometry" />
        </mxCell>
        <mxCell id="xK9bkQIo71_o8vUVFqtR-3" style="edgeStyle=orthogonalEdgeStyle;rounded=0;orthogonalLoop=1;jettySize=auto;html=1;entryX=0.5;entryY=1;entryDx=0;entryDy=0;" edge="1" parent="1" source="xK9bkQIo71_o8vUVFqtR-1" target="UBZtmPVZ2s7BMG8OKy4n-1">
          <mxGeometry relative="1" as="geometry" />
        </mxCell>
        <mxCell id="xK9bkQIo71_o8vUVFqtR-1" value="Numero secreto 7" style="rounded=1;whiteSpace=wrap;html=1;" vertex="1" parent="1">
          <mxGeometry x="354" y="30" width="120" height="40" as="geometry" />
        </mxCell>
        <mxCell id="xK9bkQIo71_o8vUVFqtR-6" style="edgeStyle=orthogonalEdgeStyle;rounded=0;orthogonalLoop=1;jettySize=auto;html=1;" edge="1" parent="1" source="xK9bkQIo71_o8vUVFqtR-2" target="UBZtmPVZ2s7BMG8OKy4n-2">
          <mxGeometry relative="1" as="geometry">
            <mxPoint x="395" y="220" as="targetPoint" />
            <Array as="points">
              <mxPoint x="395" y="230" />
              <mxPoint x="396" y="230" />
            </Array>
          </mxGeometry>
        </mxCell>
        <mxCell id="xK9bkQIo71_o8vUVFqtR-2" value="ingresa un numero" style="shape=parallelogram;perimeter=parallelogramPerimeter;whiteSpace=wrap;html=1;fixedSize=1;" vertex="1" parent="1">
          <mxGeometry x="330" y="240" width="130" height="60" as="geometry" />
        </mxCell>
        <mxCell id="xK9bkQIo71_o8vUVFqtR-5" style="edgeStyle=orthogonalEdgeStyle;rounded=0;orthogonalLoop=1;jettySize=auto;html=1;entryX=0.425;entryY=0.975;entryDx=0;entryDy=0;entryPerimeter=0;" edge="1" parent="1" source="UBZtmPVZ2s7BMG8OKy4n-2" target="xK9bkQIo71_o8vUVFqtR-1">
          <mxGeometry relative="1" as="geometry" />
        </mxCell>
        <mxCell id="xK9bkQIo71_o8vUVFqtR-7" style="edgeStyle=orthogonalEdgeStyle;rounded=0;orthogonalLoop=1;jettySize=auto;html=1;entryX=0.567;entryY=0;entryDx=0;entryDy=0;entryPerimeter=0;" edge="1" parent="1" source="UBZtmPVZ2s7BMG8OKy4n-3" target="UBZtmPVZ2s7BMG8OKy4n-4">
          <mxGeometry relative="1" as="geometry" />
        </mxCell>
        <mxCell id="xK9bkQIo71_o8vUVFqtR-8" style="edgeStyle=orthogonalEdgeStyle;rounded=0;orthogonalLoop=1;jettySize=auto;html=1;entryX=0.592;entryY=0.017;entryDx=0;entryDy=0;entryPerimeter=0;" edge="1" parent="1" source="UBZtmPVZ2s7BMG8OKy4n-3" target="UBZtmPVZ2s7BMG8OKy4n-5">
          <mxGeometry relative="1" as="geometry" />
        </mxCell>
        <mxCell id="xK9bkQIo71_o8vUVFqtR-10" style="edgeStyle=orthogonalEdgeStyle;rounded=0;orthogonalLoop=1;jettySize=auto;html=1;entryX=0.5;entryY=1;entryDx=0;entryDy=0;" edge="1" parent="1" source="xK9bkQIo71_o8vUVFqtR-9" target="UBZtmPVZ2s7BMG8OKy4n-3">
          <mxGeometry relative="1" as="geometry" />
        </mxCell>
        <mxCell id="xK9bkQIo71_o8vUVFqtR-9" value="&lt;div&gt;Tu numero es &lt;br&gt;&lt;/div&gt;&lt;div&gt;correcto&lt;/div&gt;" style="shape=parallelogram;perimeter=parallelogramPerimeter;whiteSpace=wrap;html=1;fixedSize=1;" vertex="1" parent="1">
          <mxGeometry x="335" y="500" width="120" height="60" as="geometry" />
        </mxCell>
        <mxCell id="xK9bkQIo71_o8vUVFqtR-13" style="edgeStyle=orthogonalEdgeStyle;rounded=0;orthogonalLoop=1;jettySize=auto;html=1;entryX=0.558;entryY=-0.012;entryDx=0;entryDy=0;entryPerimeter=0;" edge="1" parent="1" source="xK9bkQIo71_o8vUVFqtR-9" target="UBZtmPVZ2s7BMG8OKy4n-6">
          <mxGeometry relative="1" as="geometry" />
        </mxCell>
      </root>
    </mxGraphModel>
  </diagram>
  <diagram id="SAoYq-RPT41GyM-Pfgr4" name="Ejercicio7">
    <mxGraphModel dx="1362" dy="795" grid="1" gridSize="10" guides="1" tooltips="1" connect="1" arrows="1" fold="1" page="1" pageScale="1" pageWidth="827" pageHeight="1169" math="0" shadow="0">
      <root>
        <mxCell id="0" />
        <mxCell id="1" parent="0" />
      </root>
    </mxGraphModel>
  </diagram>
</mxfile>
